<?xml version="1.0" encoding="utf-8"?>
<svg xmlns="http://www.w3.org/2000/svg" viewBox="0 0 16 16" >
<g id="Ebene_1">
	<path fill="currentColor" d="M6.6,6.6c2.4-2.4,4.2-1.8,4.3-1.8c0,0,0.8,0.8,0.8,0.8l0.5,0.5c0.3,0.3,0.8,0.3,1.1,0l2.6-2.6
		c0.3-0.3,0.3-0.8,0-1.1l-0.5-0.5l-0.4-0.4c-0.1-0.1-0.9-0.9-1.2-1.2c-0.6-0.6-2.3-0.2-2.9,0c-1.9,0.9-4,2.4-6.1,4.4
		s-3.6,4.1-4.4,6.1c-0.2,0.6-0.6,2.2,0,2.9c0.2,0.2,1,1,1.2,1.2l0.4,0.4l0.5,0.5c0.3,0.3,0.8,0.3,1.1,0l2.6-2.6
		c0.3-0.3,0.3-0.8,0-1.1l-0.5-0.5c0,0-0.7-0.7-0.8-0.8C4.8,10.8,4.2,9,6.6,6.6L6.6,6.6z"/>
</g>
</svg>